<svg width="22" height="22" viewBox="0 0 22 22" fill="none" xmlns="http://www.w3.org/2000/svg">
<g id="Frame">
<path id="Vector" d="M14.375 16.0625C14.375 15.1674 14.0194 14.3089 13.3865 13.676C12.7536 13.0431 11.8951 12.6875 11 12.6875C10.1049 12.6875 9.24645 13.0431 8.61351 13.676C7.98058 14.3089 7.625 15.1674 7.625 16.0625" stroke="white" stroke-width="1.2" stroke-linecap="round" stroke-linejoin="round"/>
<path id="Vector_2" d="M11 12.6875C12.398 12.6875 13.5312 11.5542 13.5312 10.1562C13.5312 8.75828 12.398 7.625 11 7.625C9.60203 7.625 8.46875 8.75828 8.46875 10.1562C8.46875 11.5542 9.60203 12.6875 11 12.6875Z" stroke="white" stroke-width="1.2" stroke-linecap="round" stroke-linejoin="round"/>
<path id="Vector_3" d="M16.9062 4.25H5.09375C4.16177 4.25 3.40625 5.00552 3.40625 5.9375V17.75C3.40625 18.682 4.16177 19.4375 5.09375 19.4375H16.9062C17.8382 19.4375 18.5938 18.682 18.5938 17.75V5.9375C18.5938 5.00552 17.8382 4.25 16.9062 4.25Z" stroke="white" stroke-width="1.2" stroke-linecap="round" stroke-linejoin="round"/>
<path id="Vector_4" d="M7.625 2.5625V4.25" stroke="white" stroke-width="1.2" stroke-linecap="round" stroke-linejoin="round"/>
<path id="Vector_5" d="M14.375 2.5625V4.25" stroke="white" stroke-width="1.2" stroke-linecap="round" stroke-linejoin="round"/>
</g>
</svg>
