<svg width="42" height="47" viewBox="0 0 42 47" fill="none" xmlns="http://www.w3.org/2000/svg">
<path d="M17.1125 1.08454C17.136 0.120727 17.813 -0.25799 18.8466 0.182428C21.0655 1.12709 23.2695 2.1058 25.4777 3.076C28.9524 4.6015 32.4271 6.12913 35.8996 7.66102C37.4992 8.36739 37.5654 9.08866 36.126 10.112C31.0667 13.7099 26.0095 17.3119 20.9267 20.8799C20.5124 21.1714 19.7906 21.4501 19.4254 21.2778C19.058 21.1055 18.8124 20.3821 18.7655 19.8757C18.2081 13.7907 17.6976 7.69932 17.1744 1.61219C17.1595 1.4356 17.1317 1.26113 17.1104 1.08667L17.1125 1.08454Z" fill="#CE4A27"/>
<path d="M0.655782 31.2649C-0.0788739 31.0329 -0.21769 30.433 0.348251 29.7457C1.56556 28.2692 2.80422 26.8075 4.03648 25.3437C5.97776 23.0395 7.91905 20.7352 9.8646 18.4353C10.7616 17.3757 11.3275 17.4842 11.7931 18.8076C13.4268 23.4543 15.0649 28.1011 16.6708 32.7584C16.8011 33.1393 16.8545 33.7499 16.6431 33.9882C16.4295 34.2286 15.8209 34.2563 15.4215 34.1797C10.6334 33.2521 5.85389 32.2882 1.07223 31.3351C0.933409 31.3074 0.794598 31.2904 0.655782 31.267V31.2649Z" fill="#3282C4"/>
<path d="M18.0144 46.061C16.9039 46.0993 16.4255 45.3716 16.8676 44.1993C17.8158 41.6823 18.8025 39.1802 19.7784 36.6739C21.3161 32.7293 22.8537 28.7868 24.3978 24.8464C25.109 23.0316 25.9333 22.9103 27.2019 24.4379C31.6547 29.8059 36.1139 35.1675 40.5303 40.561C40.8913 41.0015 41.2564 41.7823 41.0835 42.1951C40.9083 42.6121 40.0904 42.9312 39.5138 43.0163C32.5516 44.0248 25.5831 44.9822 18.6167 45.9546C18.4159 45.9822 18.2152 46.0248 18.0165 46.0588H18.0144V46.061Z" fill="#6AAA43"/>
</svg>
