<svg width="21" height="21" viewBox="0 0 21 21" fill="none" xmlns="http://www.w3.org/2000/svg">
<g id="Frame" clip-path="url(#clip0_949_2074)">
<path id="Vector" d="M9.15186 11.6797C9.15186 12.1272 9.32965 12.5565 9.64611 12.8729C9.96258 13.1894 10.3918 13.3672 10.8394 13.3672C11.2869 13.3672 11.7161 13.1894 12.0326 12.8729C12.3491 12.5565 12.5269 12.1272 12.5269 11.6797C12.5269 11.2321 12.3491 10.8029 12.0326 10.4864C11.7161 10.17 11.2869 9.99219 10.8394 9.99219C10.3918 9.99219 9.96258 10.17 9.64611 10.4864C9.32965 10.8029 9.15186 11.2321 9.15186 11.6797Z" stroke="white" stroke-width="1.2" stroke-linecap="round" stroke-linejoin="round"/>
<path id="Vector_2" d="M7.46436 18.4297V17.5859C7.46436 17.1384 7.64215 16.7092 7.95861 16.3927C8.27508 16.0762 8.7043 15.8984 9.15186 15.8984H12.5269C12.9744 15.8984 13.4036 16.0762 13.7201 16.3927C14.0366 16.7092 14.2144 17.1384 14.2144 17.5859V18.4297" stroke="white" stroke-width="1.2" stroke-linecap="round" stroke-linejoin="round"/>
<path id="Vector_3" d="M13.3706 4.92969C13.3706 5.37724 13.5484 5.80646 13.8649 6.12293C14.1813 6.4394 14.6106 6.61719 15.0581 6.61719C15.5057 6.61719 15.9349 6.4394 16.2513 6.12293C16.5678 5.80646 16.7456 5.37724 16.7456 4.92969C16.7456 4.48213 16.5678 4.05291 16.2513 3.73644C15.9349 3.41998 15.5057 3.24219 15.0581 3.24219C14.6106 3.24219 14.1813 3.41998 13.8649 3.73644C13.5484 4.05291 13.3706 4.48213 13.3706 4.92969Z" stroke="white" stroke-width="1.2" stroke-linecap="round" stroke-linejoin="round"/>
<path id="Vector_4" d="M15.0581 9.14844H16.7456C17.1932 9.14844 17.6224 9.32623 17.9388 9.6427C18.2553 9.95916 18.4331 10.3884 18.4331 10.8359V11.6797" stroke="white" stroke-width="1.2" stroke-linecap="round" stroke-linejoin="round"/>
<path id="Vector_5" d="M4.93311 4.92969C4.93311 5.37724 5.1109 5.80646 5.42736 6.12293C5.74383 6.4394 6.17305 6.61719 6.62061 6.61719C7.06816 6.61719 7.49738 6.4394 7.81385 6.12293C8.13032 5.80646 8.30811 5.37724 8.30811 4.92969C8.30811 4.48213 8.13032 4.05291 7.81385 3.73644C7.49738 3.41998 7.06816 3.24219 6.62061 3.24219C6.17305 3.24219 5.74383 3.41998 5.42736 3.73644C5.1109 4.05291 4.93311 4.48213 4.93311 4.92969Z" stroke="white" stroke-width="1.2" stroke-linecap="round" stroke-linejoin="round"/>
<path id="Vector_6" d="M3.24561 11.6797V10.8359C3.24561 10.3884 3.4234 9.95916 3.73986 9.6427C4.05633 9.32623 4.48555 9.14844 4.93311 9.14844H6.62061" stroke="white" stroke-width="1.2" stroke-linecap="round" stroke-linejoin="round"/>
</g>
<defs>
<clipPath id="clip0_949_2074">
<rect width="20.25" height="20.25" fill="white" transform="translate(0.714355 0.710938)"/>
</clipPath>
</defs>
</svg>
