<svg width="127" height="30" viewBox="0 0 127 30" fill="none" xmlns="http://www.w3.org/2000/svg">
<rect width="29.9771" height="30" fill="white"/>
<path d="M29.9771 29.9752C29.9771 29.9818 29.9745 29.9881 29.9698 29.9927C29.9651 29.9974 29.9588 30 29.9522 30H0.0248365C0.0182494 30 0.0119321 29.9974 0.00727439 29.9927C0.00261663 29.9881 0 29.9818 0 29.9752V0.0248375C0 0.0182504 0.00261663 0.0119341 0.00727439 0.00727633C0.0119321 0.00261858 0.0182494 0 0.0248365 0H29.9522C29.9588 0 29.9651 0.00261858 29.9698 0.00727633C29.9745 0.0119341 29.9771 0.0182504 29.9771 0.0248375V29.9752ZM28.1621 1.77677C28.1621 1.77443 28.1616 1.77211 28.1607 1.76994C28.1598 1.76778 28.1585 1.76582 28.1569 1.76416C28.1552 1.7625 28.1533 1.76119 28.1511 1.7603C28.1489 1.7594 28.1466 1.75894 28.1443 1.75894H1.7704C1.76567 1.75894 1.76114 1.76082 1.75779 1.76416C1.75445 1.7675 1.75257 1.77204 1.75257 1.77677V28.1736C1.75257 28.1783 1.75445 28.1828 1.75779 28.1862C1.76114 28.1895 1.76567 28.1914 1.7704 28.1914H28.1443C28.1466 28.1914 28.1489 28.1909 28.1511 28.19C28.1533 28.1891 28.1552 28.1878 28.1569 28.1862C28.1585 28.1845 28.1598 28.1825 28.1607 28.1804C28.1616 28.1782 28.1621 28.1759 28.1621 28.1736V1.77677Z" fill="#BD3436"/>
<path d="M20.2859 10.069C20.2837 10.0614 20.2791 10.0547 20.2728 10.05C20.2664 10.0453 20.2588 10.0428 20.2509 10.0428L17.4036 10.0397C17.3645 10.0397 17.345 10.0594 17.345 10.0989L17.3444 25.211C17.3444 25.2161 17.3433 25.2211 17.3414 25.2258C17.3394 25.2305 17.3365 25.2348 17.3328 25.2384C17.3291 25.242 17.3248 25.2449 17.32 25.2469C17.3152 25.2488 17.3101 25.2498 17.3049 25.2498L12.514 25.2505C12.5021 25.2505 12.4908 25.2458 12.4824 25.2374C12.4741 25.229 12.4694 25.2177 12.4694 25.2059L12.47 10.0849C12.47 10.0682 12.4633 10.0521 12.4514 10.0403C12.4394 10.0285 12.4232 10.0218 12.4063 10.0218L9.56797 10.0212C9.55496 10.0212 9.54249 10.0264 9.53329 10.0356C9.5241 10.0448 9.51893 10.0572 9.51893 10.0702L9.51957 25.2059C9.51957 25.2174 9.51507 25.2284 9.50707 25.2365C9.49907 25.2446 9.48822 25.2492 9.4769 25.2492L4.74458 25.2511C4.72854 25.2511 4.71315 25.2446 4.7018 25.2332C4.69046 25.2217 4.68408 25.2062 4.68408 25.1899V4.74311C4.68408 4.73314 4.68804 4.72358 4.69509 4.71654C4.70213 4.70949 4.71169 4.70553 4.72166 4.70553L25.157 4.7049C25.1649 4.7049 25.1727 4.70646 25.18 4.7095C25.1872 4.71254 25.1938 4.717 25.1994 4.72262C25.2049 4.72823 25.2093 4.7349 25.2124 4.74224C25.2154 4.74958 25.2169 4.75745 25.2169 4.7654L25.2163 25.167C25.2163 25.2218 25.1889 25.2492 25.1341 25.2492L20.3496 25.2505C20.3148 25.2505 20.2974 25.233 20.2974 25.1982C20.2986 20.1902 20.2986 15.1734 20.2974 10.1479C20.2974 10.1212 20.2935 10.0949 20.2859 10.069Z" fill="#BD3436"/>
<path d="M45.7432 7.39141V22.6181H39.9771V7.39141H45.7432Z" fill="white"/>
<path d="M60.5224 13.4726L59.0236 22.6277H54.9473L53.563 13.4726H53.4294L52.8948 22.6181H48.4938L49.2957 7.39141H55.6919L56.9043 16.2124H57.0284L58.2408 7.39141H64.6465L65.4485 22.6181H61.1907L60.6561 13.4726H60.5224Z" fill="white"/>
<path d="M73.9557 16.6229H75.6072V9.61575H73.9557V16.6229ZM68.1991 7.39141H75.4067C75.8904 7.39141 76.32 7.40095 76.6955 7.42005C77.071 7.43914 77.4751 7.48051 77.9079 7.54415C78.3407 7.60143 78.7162 7.68417 79.0344 7.79236C79.3526 7.90056 79.6645 8.05012 79.97 8.24105C80.2818 8.42562 80.5332 8.64837 80.7242 8.90931C80.9214 9.16388 81.0806 9.47892 81.2015 9.85442C81.3224 10.2299 81.3829 10.6531 81.3829 11.1241V15.0477C81.3829 15.4296 81.3447 15.7796 81.2683 16.0979C81.1983 16.4097 81.0996 16.6866 80.9724 16.9284C80.8514 17.1639 80.6891 17.3771 80.4855 17.568C80.2882 17.7526 80.0845 17.9085 79.8745 18.0358C79.6645 18.1631 79.4131 18.2745 79.1203 18.3699C78.8276 18.4654 78.5475 18.5386 78.2802 18.5895C78.0193 18.6404 77.7106 18.6818 77.3542 18.7136C77.0042 18.7391 76.686 18.7582 76.3996 18.7709C76.1195 18.7772 75.7918 18.7804 75.4163 18.7804H73.9652V22.6181H68.1991V7.39141Z" fill="white"/>
<path d="M89.9855 10.3699H89.8041L89.0691 17.1193H90.7683L89.9855 10.3699ZM88.8972 19.1241L88.3722 22.6181H82.7779L85.5655 7.39141H94.2242L97.0595 22.6181H91.4557L90.9402 19.1241H88.8972Z" fill="white"/>
<path d="M106.674 9.67303H105.023V20.3938H106.674V16.7566H112.44V19.0955C112.44 19.5919 112.367 20.0406 112.221 20.4415C112.074 20.8361 111.883 21.1671 111.648 21.4344C111.419 21.7017 111.126 21.934 110.77 22.1313C110.413 22.3286 110.054 22.4813 109.691 22.5895C109.334 22.6977 108.921 22.7836 108.45 22.8473C107.979 22.9109 107.552 22.9523 107.171 22.9714C106.795 22.9905 106.369 23 105.891 23C105.452 23 105.051 22.9905 104.688 22.9714C104.326 22.9586 103.906 22.9204 103.428 22.8568C102.957 22.7932 102.537 22.7072 102.168 22.599C101.799 22.4909 101.424 22.3381 101.042 22.1408C100.66 21.9435 100.345 21.7112 100.097 21.4439C99.8483 21.1766 99.6447 20.8425 99.4856 20.4415C99.3265 20.0406 99.2469 19.5887 99.2469 19.0859V10.9141C99.2469 10.424 99.3201 9.9817 99.4665 9.58711C99.6192 9.18616 99.8133 8.85203 100.049 8.58473C100.291 8.31742 100.593 8.08512 100.956 7.88783C101.319 7.68417 101.681 7.52824 102.044 7.42005C102.413 7.31185 102.833 7.22593 103.304 7.16229C103.775 7.09228 104.202 7.04773 104.583 7.02864C104.972 7.00955 105.398 7 105.863 7C106.359 7 106.798 7.00955 107.18 7.02864C107.562 7.04137 107.992 7.07955 108.469 7.1432C108.953 7.20684 109.369 7.29276 109.719 7.40095C110.076 7.50278 110.432 7.65235 110.789 7.84964C111.151 8.04694 111.444 8.27924 111.667 8.54654C111.896 8.81384 112.081 9.14797 112.221 9.54893C112.367 9.94988 112.44 10.4018 112.44 10.9045V13.2721H106.674V9.67303Z" fill="white"/>
<path d="M126.819 7.39141V9.95943H123.42V22.6181H117.654V9.95943H114.284V7.39141H126.819Z" fill="white"/>
</svg>
