<svg width="21" height="21" viewBox="0 0 21 21" fill="none" xmlns="http://www.w3.org/2000/svg">
<g id="Frame">
<path id="Vector" d="M5.52686 13.3672L2.15186 9.99221L7.84717 4.28002C9.09914 3.15895 10.733 2.56002 12.4129 2.60632C14.0928 2.65262 15.6912 3.34063 16.8795 4.52896C18.0678 5.71728 18.7558 7.31565 18.8021 8.99555C18.8484 10.6755 18.2495 12.3093 17.1284 13.5613L11.4331 19.2735L8.05811 15.8985L13.4497 10.5322C13.7156 10.1846 13.8463 9.75231 13.8174 9.31562C13.7885 8.87893 13.6019 8.4676 13.2925 8.15814C12.983 7.84868 12.5717 7.66214 12.135 7.63323C11.6983 7.60432 11.266 7.73499 10.9184 8.00096L5.52686 13.3672Z" stroke="white" stroke-width="1.2" stroke-linecap="round" stroke-linejoin="round"/>
<path id="Vector_2" d="M4.68311 7.46094L8.05811 10.8359" stroke="white" stroke-width="1.2" stroke-linecap="round" stroke-linejoin="round"/>
<path id="Vector_3" d="M10.5894 13.3672L13.9644 16.7422" stroke="white" stroke-width="1.2" stroke-linecap="round" stroke-linejoin="round"/>
</g>
</svg>
