<svg width="21" height="21" viewBox="0 0 21 21" fill="none" xmlns="http://www.w3.org/2000/svg">
<g id="Frame">
<path id="Vector" d="M7.71777 11.6797H12.7803" stroke="white" stroke-width="1.2" stroke-linecap="round" stroke-linejoin="round"/>
<path id="Vector_2" d="M16.999 17.5859C17.4466 17.5859 17.8758 17.4081 18.1923 17.0917C18.5087 16.7752 18.6865 16.346 18.6865 15.8984V7.46094C18.6865 7.01338 18.5087 6.58416 18.1923 6.26769C17.8758 5.95123 17.4466 5.77344 16.999 5.77344H10.3334C10.0512 5.7762 9.77277 5.70814 9.52365 5.57548C9.27454 5.44281 9.06268 5.24979 8.90746 5.01406L8.22402 4.00156C8.07037 3.76824 7.86119 3.57672 7.61526 3.44418C7.36932 3.31164 7.09433 3.24223 6.81496 3.24219H3.49902C3.05147 3.24219 2.62225 3.41998 2.30578 3.73644C1.98931 4.05291 1.81152 4.48213 1.81152 4.92969V15.8984C1.81152 16.346 1.98931 16.7752 2.30578 17.0917C2.62225 17.4081 3.05147 17.5859 3.49902 17.5859H16.999Z" stroke="white" stroke-width="1.2" stroke-linecap="round" stroke-linejoin="round"/>
</g>
</svg>
