<svg width="21" height="21" viewBox="0 0 21 21" fill="none" xmlns="http://www.w3.org/2000/svg">
<g id="to-do-list 1" clip-path="url(#clip0_949_2058)">
<path id="Vector" d="M17.4161 2.53545C17.0056 2.12405 16.4596 1.89746 15.8788 1.89746H14.8976V1.69971C14.8976 1.1545 14.454 0.710938 13.9088 0.710938H6.78967C6.24447 0.710938 5.8009 1.1545 5.8009 1.69971V1.89746H4.81621C3.61936 1.89746 2.64455 2.87223 2.64321 4.07034L2.62695 18.7832C2.62632 19.3647 2.85204 19.9115 3.26254 20.3229C3.67307 20.7344 4.21907 20.9609 4.79995 20.9609H15.8625C17.0594 20.9609 18.0342 19.9862 18.0355 18.7881L18.0518 4.07517C18.0524 3.49365 17.8267 2.94682 17.4161 2.53545ZM6.98743 1.89746H13.7111V3.08398H6.98743V1.89746ZM16.8502 18.7867C16.8496 19.3314 16.4065 19.7744 15.8625 19.7744H4.79995C4.53591 19.7744 4.28773 19.6714 4.10113 19.4844C3.91453 19.2974 3.81194 19.0489 3.81221 18.7846L3.82847 4.07169C3.82906 3.52703 4.27215 3.08398 4.81621 3.08398H5.8009V3.28174C5.8009 3.82695 6.24447 4.27051 6.78967 4.27051H13.9088C14.454 4.27051 14.8976 3.82695 14.8976 3.28174V3.08398H15.8788C16.1428 3.08398 16.391 3.18697 16.5776 3.37397C16.7642 3.56097 16.8668 3.80954 16.8665 4.07382L16.8502 18.7867Z" fill="white"/>
<path id="Vector_2" d="M10.541 8.62109H14.756C15.0836 8.62109 15.3492 8.35547 15.3492 8.02783C15.3492 7.70019 15.0836 7.43457 14.756 7.43457H10.541C10.2134 7.43457 9.94775 7.70019 9.94775 8.02783C9.94775 8.35547 10.2134 8.62109 10.541 8.62109Z" fill="white"/>
<path id="Vector_3" d="M10.541 12.5762H14.756C15.0836 12.5762 15.3492 12.3105 15.3492 11.9829C15.3492 11.6553 15.0836 11.3896 14.756 11.3896H10.541C10.2134 11.3896 9.94775 11.6553 9.94775 11.9829C9.94775 12.3105 10.2134 12.5762 10.541 12.5762Z" fill="white"/>
<path id="Vector_4" d="M14.7729 15.3447H10.541C10.2134 15.3447 9.94775 15.6103 9.94775 15.938C9.94775 16.2656 10.2134 16.5312 10.541 16.5312H14.7729C15.1006 16.5312 15.3662 16.2656 15.3662 15.938C15.3662 15.6103 15.1006 15.3447 14.7729 15.3447Z" fill="white"/>
<path id="Vector_5" d="M8.01597 6.41247L6.64783 7.78061L6.32526 7.45799C6.09357 7.22631 5.71795 7.22631 5.48627 7.45799C5.25458 7.68964 5.25458 8.0653 5.48627 8.29699L6.22836 9.03912C6.33961 9.15037 6.4905 9.2129 6.64787 9.2129C6.80521 9.2129 6.95609 9.15041 7.06735 9.03912L8.855 7.2515C9.08669 7.01985 9.08669 6.6442 8.855 6.41251C8.62332 6.18078 8.2477 6.18078 8.01597 6.41247Z" fill="white"/>
<path id="Vector_6" d="M8.01597 10.6696L6.64783 12.0377L6.32526 11.7151C6.09357 11.4835 5.71795 11.4835 5.48627 11.7151C5.25458 11.9468 5.25458 12.3224 5.48627 12.5541L6.22836 13.2963C6.33961 13.4075 6.4905 13.4701 6.64787 13.4701C6.80521 13.4701 6.95613 13.4076 7.06735 13.2963L8.855 11.5086C9.08669 11.277 9.08669 10.9013 8.855 10.6696C8.62332 10.4379 8.24766 10.4379 8.01597 10.6696Z" fill="white"/>
<path id="Vector_7" d="M8.01597 14.6247L6.64783 15.9928L6.32526 15.6702C6.09357 15.4385 5.71795 15.4385 5.48627 15.6702C5.25458 15.9019 5.25458 16.2775 5.48627 16.5092L6.22836 17.2513C6.33961 17.3626 6.4905 17.4251 6.64787 17.4251C6.80521 17.4251 6.95613 17.3626 7.06735 17.2513L8.855 15.4637C9.08669 15.232 9.08669 14.8564 8.855 14.6247C8.62332 14.393 8.24766 14.393 8.01597 14.6247Z" fill="white"/>
</g>
<defs>
<clipPath id="clip0_949_2058">
<rect width="20.25" height="20.25" fill="white" transform="translate(0.214355 0.710938)"/>
</clipPath>
</defs>
</svg>
